<?xml version="1.0" standalone="no"?>
<!DOCTYPE svg PUBLIC "-//W3C//DTD SVG 20010904//EN"
 "http://www.w3.org/TR/2001/REC-SVG-20010904/DTD/svg10.dtd">
<svg version="1.0" xmlns="http://www.w3.org/2000/svg"
 width="700.000000pt" height="700.000000pt" viewBox="0 0 700.000000 700.000000"
 preserveAspectRatio="xMidYMid meet">
<metadata>
Created by potrace 1.14, written by Peter Selinger 2001-2017
</metadata>
<g transform="translate(0.000000,700.000000) scale(0.100000,-0.100000)"
fill="#000000" stroke="none">
<path d="M179 6998 c-1 -2 -2 -79 -3 -173 l-1 -170 350 -5 350 -5 0 -3145 0
-3145 -350 -5 -350 -5 0 -170 0 -170 525 0 525 0 0 3495 0 3495 -522 3 c-288
1 -524 1 -524 0z"/>
<path d="M3005 6992 c-433 -44 -718 -314 -829 -784 -26 -109 -29 -122 -46
-263 -21 -164 -18 -85 -35 -1055 -3 -168 -7 -321 -9 -340 -2 -19 -7 -64 -10
-100 -3 -36 -8 -74 -10 -85 -2 -11 -7 -40 -11 -65 -36 -221 -115 -396 -223
-490 -92 -81 -238 -130 -395 -134 l-37 0 2 -175 3 -175 40 -2 c399 -22 574
-236 631 -774 3 -36 8 -78 10 -95 3 -28 6 -164 19 -920 3 -165 7 -320 10 -345
35 -330 70 -489 145 -654 72 -160 210 -322 341 -399 77 -45 202 -95 273 -108
28 -5 62 -11 76 -14 14 -3 64 -8 113 -11 l87 -6 0 176 0 176 -32 1 c-32 0 -48
2 -134 14 -90 12 -198 61 -268 121 -95 82 -171 240 -211 436 -19 92 -21 103
-30 203 -4 39 -9 86 -11 105 -2 19 -6 170 -9 335 -16 939 -14 908 -41 1100
-31 224 -72 371 -144 515 -57 112 -167 251 -240 303 l-24 16 25 20 c182 144
299 365 363 686 17 84 20 107 31 220 4 39 9 86 11 105 2 19 6 179 9 355 14
867 15 894 35 1045 27 199 60 316 126 440 95 179 266 274 507 279 l37 1 0 175
0 176 -57 -3 c-32 -1 -71 -4 -88 -6z"/>
<path d="M3675 6828 l0 -173 350 -5 350 -5 1 -3135 c0 -1724 -2 -3141 -4
-3148 -3 -9 -82 -12 -351 -12 l-346 0 0 -175 0 -175 525 0 525 0 0 3500 0
3500 -525 0 -525 0 0 -172z"/>
<path d="M6447 6984 c-403 -64 -658 -315 -766 -756 -32 -132 -35 -147 -51
-278 -21 -176 -21 -186 -35 -1070 -2 -168 -7 -316 -9 -330 -3 -14 -7 -56 -11
-95 -39 -433 -181 -676 -436 -749 -69 -20 -99 -24 -176 -28 l-63 -3 0 -175 0
-175 48 -2 c190 -10 330 -66 422 -169 109 -123 176 -323 206 -609 3 -33 8 -71
10 -85 2 -14 7 -169 9 -345 9 -605 15 -870 20 -915 2 -25 7 -76 11 -115 3 -38
8 -79 10 -90 2 -11 6 -37 9 -57 3 -20 10 -59 16 -85 6 -26 13 -58 15 -71 20
-105 94 -283 159 -382 159 -245 391 -371 728 -396 l87 -6 0 176 0 176 -37 1
c-129 3 -263 40 -346 95 -158 104 -264 351 -293 679 -3 38 -8 86 -10 105 -2
19 -6 161 -9 315 -3 154 -7 417 -10 585 -3 168 -7 323 -10 345 -2 22 -6 65 -9
95 -9 106 -25 200 -51 315 -59 252 -175 457 -331 586 l-32 26 74 73 c194 191
298 450 339 850 3 30 8 78 11 105 2 28 7 194 9 370 13 856 17 958 46 1110 5
28 12 66 15 85 10 63 71 235 104 290 95 161 220 237 435 264 22 3 55 5 73 6
l32 0 0 174 0 175 -62 -1 c-35 -1 -98 -7 -141 -14z"/>
</g>
</svg>
