<?xml version="1.0" standalone="no"?>
<!DOCTYPE svg PUBLIC "-//W3C//DTD SVG 20010904//EN"
 "http://www.w3.org/TR/2001/REC-SVG-20010904/DTD/svg10.dtd">
<svg version="1.0" xmlns="http://www.w3.org/2000/svg"
 width="700.000000pt" height="700.000000pt" viewBox="0 0 700.000000 700.000000"
 preserveAspectRatio="xMidYMid meet">
<metadata>
Created by potrace 1.14, written by Peter Selinger 2001-2017
</metadata>
<g transform="translate(0.000000,700.000000) scale(0.100000,-0.100000)"
fill="#000000" stroke="none">
<path d="M1925 6825 l0 -175 346 0 c269 0 348 -3 351 -12 2 -7 4 -1424 4
-3148 l-1 -3135 -350 -3 -351 -2 1 -173 0 -172 525 -3 525 -2 0 3497 0 3498
-525 3 -525 2 0 -175z"/>
<path d="M4767 6994 c-1 -1 -24 -4 -52 -7 -138 -15 -329 -88 -427 -164 -61
-47 -169 -168 -212 -235 -102 -165 -178 -421 -202 -683 -3 -38 -8 -86 -10
-105 -2 -19 -6 -172 -9 -340 -13 -750 -15 -878 -20 -920 -3 -25 -7 -65 -10
-90 -12 -114 -17 -151 -37 -235 -54 -234 -139 -374 -276 -454 -95 -56 -206
-84 -334 -84 l-28 -1 0 -177 0 -177 33 1 c170 3 345 -66 438 -171 80 -92 150
-255 178 -417 21 -121 29 -185 37 -280 3 -52 10 -352 19 -910 3 -176 7 -333 9
-350 2 -16 7 -59 10 -95 28 -293 109 -554 227 -727 42 -61 151 -170 209 -209
93 -63 213 -115 297 -130 15 -3 44 -9 63 -14 19 -5 79 -12 133 -15 l97 -7 0
176 0 176 -42 1 c-338 9 -532 196 -604 578 -9 47 -17 93 -19 101 -3 15 -12
102 -21 195 -4 47 -7 193 -19 910 -5 289 -6 325 -20 445 -13 113 -16 133 -36
236 -55 288 -175 513 -347 656 l-33 27 27 23 c189 161 308 391 359 692 9 50
18 101 20 114 4 22 11 88 20 192 3 25 7 180 10 345 13 775 16 892 19 920 2 17
7 59 11 95 12 114 14 128 35 218 83 375 266 542 603 551 l37 1 0 175 0 176
-66 -3 c-36 -1 -66 -3 -67 -4z"/>
</g>
</svg>
